<svg width="80" height="80" viewBox="0 0 80 80" fill="none" xmlns="http://www.w3.org/2000/svg">
<g clip-path="url(#clip0_86_1828)">
<path d="M65.9229 0H14.0037C6.29936 0 0 6.44207 0 14.3209V49.1513C0 65.7166 22.663 63.4534 22.663 63.4534C20.202 63.4534 17.8237 60.8992 17.8237 58.373V21.7021C17.8237 19.1853 19.8439 17.1194 22.3049 17.1194H57.6217C72.1212 17.1194 79.9265 28.717 79.9265 28.717V14.3209C79.9174 6.44207 73.618 0 65.9229 0Z" fill="#2C4652"/>
<path d="M14.0771 80.0001H65.9963C73.7007 80.0001 80 73.5581 80 65.6792V35.1216C80 35.1216 74.2884 22.5756 59.3297 20.7256C60.9917 21.3923 62.1855 23.0545 62.1855 24.989V58.2981C62.1855 60.8148 60.1653 63.4442 57.7043 63.4442H29.7888C29.7888 63.4442 0.0918369 65.6416 0.0918369 49.0669V65.6698C0.0734715 73.5487 6.37283 80.0001 14.0771 80.0001Z" fill="#909CA2"/>
</g>
<defs>
<clipPath id="clip0_86_1828">
<rect width="80" height="80" fill="white"/>
</clipPath>
</defs>
</svg>
